<?xml version="1.0" encoding="utf-8"?>
<!-- Generator: Adobe Illustrator 22.1.0, SVG Export Plug-In . SVG Version: 6.00 Build 0)  -->
<svg version="1.1" xmlns="http://www.w3.org/2000/svg" xmlns:xlink="http://www.w3.org/1999/xlink" x="0px" y="0px"
	 viewBox="0 0 1280 1024" style="enable-background:new 0 0 1280 1024;" xml:space="preserve">
<style type="text/css">
	.st0{fill:#FFFFFF;}
	.st1{fill:#F23849;}
	.st2{fill:#333333;}
</style>
<g id="Layer_1">
</g>
<g id="Layer_2">
	<g>
		<g transform="translate(28 -87.33333333333334) scale(1.5157895954163878)">
			<path class="st0" d="M546.7,240.7c-8.1-19.3-19.7-36.3-34.6-51.2c-14.9-14.9-31.9-26.5-51.2-34.6c-20-8.1-41-12.5-62.7-12.5
				s-42.7,4.4-62.7,12.5c-19.3,8.1-36.3,19.7-51.2,34.6c-14.9,14.9-26.5,31.9-34.6,51.2c-8.1,20-12.5,41-12.5,62.7
				c0,53.9,26.8,104.1,71.9,134.3c1.7,1,3.7,0.7,4.7-1c1-1.7,0.7-3.7-1-4.7c-43.1-28.5-68.9-76.7-68.9-128.5
				c0-41.4,15.9-80,45.1-109.2s67.8-45.1,109.2-45.1s80,15.9,109.2,45.1c29.2,29.2,45.1,67.8,45.1,109.2s-15.9,80-45.1,109.2
				c-29.2,29.2-67.8,45.1-109.2,45.1c-13.2,0-26.8-1.7-39.3-5.1c-1.7-0.3-3.7,0.7-4.1,2.4c-0.3,1.7,0.7,3.7,2.4,4.1
				c13.2,3.4,27.1,5.4,41,5.4c21.7,0,42.7-4.4,62.7-12.5c19.3-8.1,36.3-19.7,51.2-34.6c14.9-14.9,26.5-31.9,34.6-51.2
				c8.5-20,12.5-41,12.5-62.7S554.9,260.7,546.7,240.7L546.7,240.7z"/>
			<path class="st0" d="M295,246.8c-1.7-1-3.7-0.3-4.4,1.4c-8.8,17.3-13.2,35.6-13.2,55.3c0,32.2,12.5,62.7,35.3,85.5
				c22.7,22.7,53.2,35.3,85.5,35.3s62.7-12.5,85.5-35.3c22.7-22.7,35.3-53.2,35.3-85.5s-12.5-62.7-35.3-85.5
				c-22.7-22.7-53.2-35.3-85.5-35.3c-25.4,0-49.5,7.8-70.2,22.4c-1.4,1-1.7,3.1-0.7,4.7c1,1.4,3.1,1.7,4.7,0.7
				c19.3-13.9,42.4-21,66.1-21c30.5,0,59,11.9,80.7,33.6s33.6,50.2,33.6,80.7s-11.9,59-33.6,80.7c-21.7,21-50.2,32.9-80.7,32.9
				s-59-11.9-80.7-33.6c-21.4-21.4-33.2-49.9-33.2-80.4c0-18.3,4.1-36,12.5-52.2C297.4,249.5,296.7,247.5,295,246.8z"/>
			<path class="st0" d="M441.2,239.4c1-1.7,0.3-3.7-1-4.7c-12.5-7.8-27.1-11.9-42.1-11.9c-44.4,0-80.7,36.3-80.7,80.7
				s36.3,80.7,80.7,80.7s80.7-36.3,80.7-80.7c0-7.1-1-14.2-2.7-21c-0.3-1.7-2.4-2.7-4.1-2.4c-1.7,0.3-2.7,2.4-2.4,4.1
				c1.7,6.1,2.4,12.9,2.4,19.3c0,40.7-33.2,73.9-73.9,73.9s-73.9-33.2-73.9-73.9s33.2-73.9,73.9-73.9c13.6,0,26.8,3.7,38.7,10.9
				C438.2,241.4,440.2,241.1,441.2,239.4z"/>
			<circle class="st0" cx="398.2" cy="303.5" r="33.6"/>
			<circle class="st0" cx="461.9" cy="259.7" r="10.2"/>
			<circle class="st0" cx="307.6" cy="226.1" r="10.2"/>
			<circle class="st0" cx="334.4" cy="448" r="10.2"/>
		</g>
		<g transform="translate(-42.52539550000001 121.06933333333332) scale(1)">
			<path class="st0" d="M280.5,677.6c-5.7-6.4-8.6-14.6-8.6-24.7s2.9-18.4,8.6-24.8c5.7-6.4,13.1-9.6,22-9.6s16.3,3.2,22,9.6
				c5.7,6.4,8.6,14.7,8.6,24.8s-2.9,18.3-8.6,24.7c-5.7,6.4-13.1,9.5-22,9.5S286.2,684,280.5,677.6z M349.3,698.2
				c12.4-12.2,18.6-27.3,18.6-45.2s-6.2-33-18.6-45.3c-12.4-12.3-28-18.5-46.7-18.5c-18.8,0-34.3,6.2-46.7,18.5
				c-12.4,12.3-18.6,27.4-18.6,45.3s6.2,33,18.6,45.2c12.4,12.2,28,18.4,46.7,18.4C321.3,716.6,336.9,710.4,349.3,698.2z M387.1,661
				h81.7v-30.5h-81.7V661z M560.1,621.5h6.7l-0.2-32.4c-6.9,0.2-13.7,2-20.3,5.5c-6.7,3.5-12.2,7.8-16.6,12.9v-16.3h-34.4v123.5
				h34.4v-53.5c0-11.9,2.5-21.5,7.6-28.8C542.2,625.1,549.9,621.5,560.1,621.5z M689.1,714.7V636c0-16.2-4.7-28.1-14.2-35.6
				c-9.5-7.5-21.7-11.3-36.7-11.3c-20.8,0-39.3,5.9-55.6,17.7l15.4,22.3c4.6-3.5,10.2-6.5,16.9-8.8c6.7-2.4,13-3.6,18.9-3.6
				c13.9,0,20.9,6.6,20.9,19.7v0.7h-25.7c-15.9,0-28.5,3.1-37.7,9.4c-9.2,6.3-13.8,15.7-13.8,28.4c0,12.6,4.4,22.7,13.3,30.3
				c8.9,7.6,19.9,11.4,32.9,11.4c13.1,0,24.1-5.6,32.9-16.8v14.9H689.1z M654.4,667.6c0,6.3-2.3,11.3-7,15
				c-4.7,3.8-10.1,5.6-16.2,5.6c-6.1,0-10.8-1.2-14.1-3.6s-4.9-5.8-4.9-10.2c0-8.6,6.9-12.9,20.7-12.9h21.6V667.6z M749.6,645.8
				c0-9.6,2.6-17,7.7-21.9c5.1-5,11.1-7.5,18-7.5c13.9,0,20.9,9.5,20.9,28.5v69.8h34.4v-75.1c0-15.3-4.4-27.6-13.2-36.7
				s-19.7-13.8-32.7-13.8s-24.7,5.3-35.1,15.8v-13.8h-34.4v123.5h34.4V645.8z M934.8,627c5.5,5.7,8.3,13.4,8.3,23.3
				s-2.8,17.8-8.3,23.8c-5.5,6-12.4,9-20.7,9c-8.3,0-15.3-3-21-9.1c-5.7-6-8.6-14-8.6-23.8c0-9.8,2.9-17.5,8.8-23.2
				c5.9-5.7,12.9-8.5,21-8.5C922.5,618.5,929.3,621.3,934.8,627z M947.9,693.8c0,13.6-3.7,23.6-11,29.8s-17.3,9.4-30,9.4
				c-12.6,0-24.6-4.3-35.9-12.9l-13.3,25.9c7.2,5.5,15.6,9.8,25.1,12.7s18.9,4.5,28.1,4.5c17.3,0,32.3-5.1,45-15.2
				c6.4-4.9,11.6-11.6,15.4-20.2c3.8-8.6,5.7-18.4,5.7-29.4V591h-34.4v16.3c-9.6-12.1-21.8-18.1-36.5-18.1s-27.7,5.9-39.1,17.6
				c-11.4,11.7-17.1,26.7-17.1,45s5.5,32.9,16.6,43.9s24.7,16.4,40.9,16.4C923.5,712,937,705.9,947.9,693.8z M1040.5,677.6
				c-5.7-6.4-8.6-14.6-8.6-24.7s2.9-18.4,8.6-24.8c5.7-6.4,13.1-9.6,22-9.6c9,0,16.3,3.2,22,9.6c5.7,6.4,8.6,14.7,8.6,24.8
				s-2.9,18.3-8.6,24.7c-5.7,6.4-13.1,9.5-22,9.5C1053.6,687.2,1046.2,684,1040.5,677.6z M1109.2,698.2
				c12.4-12.2,18.6-27.3,18.6-45.2s-6.2-33-18.6-45.3c-12.4-12.3-28-18.5-46.7-18.5c-18.8,0-34.3,6.2-46.7,18.5
				c-12.4,12.3-18.6,27.4-18.6,45.3s6.2,33,18.6,45.2c12.4,12.2,28,18.4,46.7,18.4C1081.3,716.6,1096.8,710.4,1109.2,698.2z"/>
		</g>
	</g>
</g>
</svg>
