<svg id="Layer_1" xmlns="http://www.w3.org/2000/svg" viewBox="0 0 800 120"><style/><path d="M166.2-34.7c-1.7-1.9-2.6-4.4-2.6-7.4s.9-5.5 2.6-7.4c1.7-1.9 3.9-2.9 6.6-2.9s4.9 1 6.6 2.9c1.7 1.9 2.6 4.4 2.6 7.4s-.9 5.5-2.6 7.4-3.9 2.9-6.6 2.9-4.9-1-6.6-2.9zm20.6 6.1c3.7-3.7 5.6-8.2 5.6-13.6s-1.9-9.9-5.6-13.6c-3.7-3.7-8.4-5.5-14-5.5s-10.3 1.8-14 5.5c-3.7 3.7-5.6 8.2-5.6 13.6s1.9 9.9 5.6 13.6 8.4 5.5 14 5.5 10.3-1.8 14-5.5zm11.3-11.1h24.5v-9.2h-24.5v9.2zM250-51.6h2l-.1-9.7c-2.1 0-4.1.6-6.1 1.7s-3.7 2.3-5 3.9v-4.9h-10.3v37h10.3v-16c0-3.6.8-6.5 2.3-8.6s3.9-3.4 6.9-3.4zm38.7 28v-23.6c0-4.9-1.4-8.4-4.3-10.7-2.8-2.2-6.5-3.4-11-3.4-6.2 0-11.8 1.8-16.7 5.3l4.6 6.7c1.4-1.1 3.1-1.9 5.1-2.7s3.9-1.1 5.7-1.1c4.2 0 6.3 2 6.3 5.9v.2h-7.7c-4.8 0-8.5.9-11.3 2.8-2.8 1.9-4.1 4.7-4.1 8.5s1.3 6.8 4 9.1 6 3.4 9.9 3.4 7.2-1.7 9.9-5v4.5h9.6zm-10.4-14.1c0 1.9-.7 3.4-2.1 4.5s-3 1.7-4.9 1.7c-1.8 0-3.2-.4-4.2-1.1-1-.7-1.5-1.7-1.5-3.1 0-2.6 2.1-3.9 6.2-3.9h6.5v1.9zm28.6-6.6c0-2.9.8-5.1 2.3-6.6s3.3-2.2 5.4-2.2c4.2 0 6.3 2.8 6.3 8.5v20.9h10.3v-22.5c0-4.6-1.3-8.3-4-11-2.6-2.8-5.9-4.1-9.8-4.1-3.9 0-7.4 1.6-10.5 4.8v-4.1h-10.3v37h10.3v-20.7zm55.5-5.6c1.7 1.7 2.5 4 2.5 7s-.8 5.3-2.5 7.1-3.7 2.7-6.2 2.7-4.6-.9-6.3-2.7c-1.7-1.8-2.6-4.2-2.6-7.1 0-2.9.9-5.3 2.7-7s3.9-2.5 6.3-2.5 4.5.8 6.1 2.5zm4 20c0 4.1-1.1 7.1-3.3 9s-5.2 2.8-9 2.8-7.4-1.3-10.8-3.9l-4 7.8c2.2 1.7 4.7 2.9 7.5 3.8 2.9.9 5.7 1.3 8.4 1.3 5.2 0 9.7-1.5 13.5-4.5 1.9-1.5 3.5-3.5 4.6-6.1 1.1-2.6 1.7-5.5 1.7-8.8v-32.3h-10.3v4.9c-2.9-3.6-6.5-5.4-10.9-5.4s-8.3 1.8-11.7 5.3c-3.4 3.5-5.1 8-5.1 13.5s1.7 9.9 5 13.2 7.4 4.9 12.3 4.9 8.8-1.8 12.1-5.5zm27.7-4.8c-1.7-1.9-2.6-4.4-2.6-7.4s.9-5.5 2.6-7.4c1.7-1.9 3.9-2.9 6.6-2.9 2.7 0 4.9 1 6.6 2.9 1.7 1.9 2.6 4.4 2.6 7.4s-.9 5.5-2.6 7.4c-1.7 1.9-3.9 2.9-6.6 2.9-2.7-.1-4.9-1-6.6-2.9zm20.6 6.1c3.7-3.7 5.6-8.2 5.6-13.6s-1.9-9.9-5.6-13.6c-3.7-3.7-8.4-5.5-14-5.5s-10.3 1.8-14 5.5c-3.7 3.7-5.6 8.2-5.6 13.6s1.9 9.9 5.6 13.6 8.4 5.5 14 5.5 10.3-1.8 14-5.5z" fill="#fff" transform="matrix(1.4 0 0 1.4 -42.525 121.07)"/></svg>