<svg xmlns="http://www.w3.org/2000/svg" viewBox="0 0 1280 1024"><style>.st0{fill:#fff}</style><g id="Layer_2"><g transform="translate(28 -87.333) scale(1.51579)"><path class="st0" d="M546.7 240.7c-8.1-19.3-19.7-36.3-34.6-51.2-14.9-14.9-31.9-26.5-51.2-34.6-20-8.1-41-12.5-62.7-12.5s-42.7 4.4-62.7 12.5c-19.3 8.1-36.3 19.7-51.2 34.6-14.9 14.9-26.5 31.9-34.6 51.2-8.1 20-12.5 41-12.5 62.7 0 53.9 26.8 104.1 71.9 134.3 1.7 1 3.7.7 4.7-1s.7-3.7-1-4.7c-43.1-28.5-68.9-76.7-68.9-128.5 0-41.4 15.9-80 45.1-109.2s67.8-45.1 109.2-45.1 80 15.9 109.2 45.1c29.2 29.2 45.1 67.8 45.1 109.2s-15.9 80-45.1 109.2c-29.2 29.2-67.8 45.1-109.2 45.1-13.2 0-26.8-1.7-39.3-5.1-1.7-.3-3.7.7-4.1 2.4-.3 1.7.7 3.7 2.4 4.1 13.2 3.4 27.1 5.4 41 5.4 21.7 0 42.7-4.4 62.7-12.5 19.3-8.1 36.3-19.7 51.2-34.6 14.9-14.9 26.5-31.9 34.6-51.2 8.5-20 12.5-41 12.5-62.7s-4.3-42.9-12.5-62.9z"/><path class="st0" d="M295 246.8c-1.7-1-3.7-.3-4.4 1.4-8.8 17.3-13.2 35.6-13.2 55.3 0 32.2 12.5 62.7 35.3 85.5 22.7 22.7 53.2 35.3 85.5 35.3s62.7-12.5 85.5-35.3c22.7-22.7 35.3-53.2 35.3-85.5s-12.5-62.7-35.3-85.5c-22.7-22.7-53.2-35.3-85.5-35.3-25.4 0-49.5 7.8-70.2 22.4-1.4 1-1.7 3.1-.7 4.7 1 1.4 3.1 1.7 4.7.7 19.3-13.9 42.4-21 66.1-21 30.5 0 59 11.9 80.7 33.6s33.6 50.2 33.6 80.7-11.9 59-33.6 80.7c-21.7 21-50.2 32.9-80.7 32.9s-59-11.9-80.7-33.6c-21.4-21.4-33.2-49.9-33.2-80.4 0-18.3 4.1-36 12.5-52.2.7-1.7 0-3.7-1.7-4.4z"/><path class="st0" d="M441.2 239.4c1-1.7.3-3.7-1-4.7-12.5-7.8-27.1-11.9-42.1-11.9-44.4 0-80.7 36.3-80.7 80.7s36.3 80.7 80.7 80.7 80.7-36.3 80.7-80.7c0-7.1-1-14.2-2.7-21-.3-1.7-2.4-2.7-4.1-2.4-1.7.3-2.7 2.4-2.4 4.1 1.7 6.1 2.4 12.9 2.4 19.3 0 40.7-33.2 73.9-73.9 73.9s-73.9-33.2-73.9-73.9 33.2-73.9 73.9-73.9c13.6 0 26.8 3.7 38.7 10.9 1.4.9 3.4.6 4.4-1.1z"/><circle class="st0" cx="398.2" cy="303.5" r="33.6"/><circle class="st0" cx="461.9" cy="259.7" r="10.2"/><circle class="st0" cx="307.6" cy="226.1" r="10.2"/><circle class="st0" cx="334.4" cy="448" r="10.2"/></g><path class="st0" d="M280.5 677.6c-5.7-6.4-8.6-14.6-8.6-24.7s2.9-18.4 8.6-24.8c5.7-6.4 13.1-9.6 22-9.6s16.3 3.2 22 9.6c5.7 6.4 8.6 14.7 8.6 24.8s-2.9 18.3-8.6 24.7c-5.7 6.4-13.1 9.5-22 9.5s-16.3-3.1-22-9.5zm68.8 20.6c12.4-12.2 18.6-27.3 18.6-45.2s-6.2-33-18.6-45.3c-12.4-12.3-28-18.5-46.7-18.5-18.8 0-34.3 6.2-46.7 18.5-12.4 12.3-18.6 27.4-18.6 45.3s6.2 33 18.6 45.2c12.4 12.2 28 18.4 46.7 18.4 18.7 0 34.3-6.2 46.7-18.4zm37.8-37.2h81.7v-30.5h-81.7V661zm173-39.5h6.7l-.2-32.4c-6.9.2-13.7 2-20.3 5.5-6.7 3.5-12.2 7.8-16.6 12.9v-16.3h-34.4v123.5h34.4v-53.5c0-11.9 2.5-21.5 7.6-28.8 4.9-7.3 12.6-10.9 22.8-10.9zm129 93.2V636c0-16.2-4.7-28.1-14.2-35.6s-21.7-11.3-36.7-11.3c-20.8 0-39.3 5.9-55.6 17.7l15.4 22.3c4.6-3.5 10.2-6.5 16.9-8.8 6.7-2.4 13-3.6 18.9-3.6 13.9 0 20.9 6.6 20.9 19.7v.7H629c-15.9 0-28.5 3.1-37.7 9.4-9.2 6.3-13.8 15.7-13.8 28.4 0 12.6 4.4 22.7 13.3 30.3 8.9 7.6 19.9 11.4 32.9 11.4 13.1 0 24.1-5.6 32.9-16.8v14.9h32.5zm-34.7-47.1c0 6.3-2.3 11.3-7 15-4.7 3.8-10.1 5.6-16.2 5.6s-10.8-1.2-14.1-3.6-4.9-5.8-4.9-10.2c0-8.6 6.9-12.9 20.7-12.9h21.6v6.1zm95.2-21.8c0-9.6 2.6-17 7.7-21.9 5.1-5 11.1-7.5 18-7.5 13.9 0 20.9 9.5 20.9 28.5v69.8h34.4v-75.1c0-15.3-4.4-27.6-13.2-36.7s-19.7-13.8-32.7-13.8-24.7 5.3-35.1 15.8v-13.8h-34.4v123.5h34.4v-68.8zM934.8 627c5.5 5.7 8.3 13.4 8.3 23.3s-2.8 17.8-8.3 23.8c-5.5 6-12.4 9-20.7 9-8.3 0-15.3-3-21-9.1-5.7-6-8.6-14-8.6-23.8s2.9-17.5 8.8-23.2c5.9-5.7 12.9-8.5 21-8.5 8.2 0 15 2.8 20.5 8.5zm13.1 66.8c0 13.6-3.7 23.6-11 29.8s-17.3 9.4-30 9.4c-12.6 0-24.6-4.3-35.9-12.9L857.7 746c7.2 5.5 15.6 9.8 25.1 12.7s18.9 4.5 28.1 4.5c17.3 0 32.3-5.1 45-15.2 6.4-4.9 11.6-11.6 15.4-20.2 3.8-8.6 5.7-18.4 5.7-29.4V591h-34.4v16.3c-9.6-12.1-21.8-18.1-36.5-18.1s-27.7 5.9-39.1 17.6c-11.4 11.7-17.1 26.7-17.1 45s5.5 32.9 16.6 43.9 24.7 16.4 40.9 16.4c16.1-.1 29.6-6.2 40.5-18.3zm92.6-16.2c-5.7-6.4-8.6-14.6-8.6-24.7s2.9-18.4 8.6-24.8c5.7-6.4 13.1-9.6 22-9.6 9 0 16.3 3.2 22 9.6 5.7 6.4 8.6 14.7 8.6 24.8s-2.9 18.3-8.6 24.7c-5.7 6.4-13.1 9.5-22 9.5-8.9.1-16.3-3.1-22-9.5zm68.7 20.6c12.4-12.2 18.6-27.3 18.6-45.2s-6.2-33-18.6-45.3c-12.4-12.3-28-18.5-46.7-18.5-18.8 0-34.3 6.2-46.7 18.5-12.4 12.3-18.6 27.4-18.6 45.3s6.2 33 18.6 45.2c12.4 12.2 28 18.4 46.7 18.4 18.8 0 34.3-6.2 46.7-18.4z" transform="translate(-42.525 121.07)"/></g></svg>